<svg viewBox="0 0 400 400" xmlns="http://www.w3.org/2000/svg">
  <path d="M 322.45 176.757 L 386.679 358.541 L 345.582 358.541 L 333.893 321.173 L 267.08 321.173 L 254.529 358.541 L 214.909 358.541 L 279.63 176.757 L 322.449 176.757 L 322.45 176.757 Z M 300.671 218.319 L 277.293 289.848 L 323.311 289.848 L 300.671 218.319 Z" style=""/>
  <path d="M 162.821 231.752 L 207.619 358.541 L 178.955 358.541 L 170.802 332.478 L 124.202 332.478 L 115.448 358.541 L 87.814 358.541 L 132.955 231.752 L 162.821 231.752 Z M 147.63 260.74 L 131.325 310.63 L 163.422 310.63 L 147.63 260.74 Z" style=""/>
  <path d="M 97.45 130.6 L 97.45 151.79 L 17.46 151.79 Q 18.76 139.77 25.26 129.01 Q 31.75 118.25 50.92 100.47 Q 66.35 86.1 69.84 80.98 Q 74.55 73.92 74.55 67.02 Q 74.55 59.38 70.45 55.28 Q 66.35 51.18 59.12 51.18 Q 51.97 51.18 47.75 55.49 Q 43.53 59.79 42.88 69.78 L 20.14 67.5 Q 22.17 48.67 32.89 40.46 Q 43.61 32.26 59.69 32.26 Q 77.31 32.26 87.38 41.76 Q 97.45 51.26 97.45 65.39 Q 97.45 73.43 94.56 80.7 Q 91.68 87.97 85.43 95.92 Q 81.29 101.2 70.49 111.11 Q 59.69 121.02 56.8 124.26 Q 53.92 127.51 52.14 130.6 Z M 100.82 151.79 L 141.5 89.67 L 104.64 32.75 L 132.73 32.75 L 156.61 71 L 179.99 32.75 L 207.84 32.75 L 170.82 90.57 L 211.5 151.79 L 182.51 151.79 L 156.12 110.62 L 129.65 151.79 Z M 226.07 151.79 L 226.07 33.72 L 250.11 33.72 L 250.11 131.73 L 309.87 131.73 L 309.87 151.79 Z"/>
</svg>