<svg viewBox="0 0 400 400" xmlns="http://www.w3.org/2000/svg">
  <path d="M 322.45 176.757 L 386.679 358.541 L 345.582 358.541 L 333.893 321.173 L 267.08 321.173 L 254.529 358.541 L 214.909 358.541 L 279.63 176.757 L 322.449 176.757 L 322.45 176.757 Z M 300.671 218.319 L 277.293 289.848 L 323.311 289.848 L 300.671 218.319 Z" style=""/>
  <path d="M 162.821 231.752 L 207.619 358.541 L 178.955 358.541 L 170.802 332.478 L 124.202 332.478 L 115.448 358.541 L 87.814 358.541 L 132.955 231.752 L 162.821 231.752 Z M 147.63 260.74 L 131.325 310.63 L 163.422 310.63 L 147.63 260.74 Z" style=""/>
  <path d="M 19.33 153.06 L 42.72 150.78 Q 44.83 162.56 51.28 168.08 Q 57.74 173.6 68.7 173.6 Q 80.31 173.6 86.2 168.69 Q 92.09 163.78 92.09 157.2 Q 92.09 152.98 89.61 150.01 Q 87.13 147.05 80.96 144.86 Q 76.74 143.4 61.72 139.66 Q 42.39 134.87 34.6 127.89 Q 23.63 118.06 23.63 103.93 Q 23.63 94.84 28.79 86.92 Q 33.95 79 43.65 74.86 Q 53.35 70.72 67.08 70.72 Q 89.49 70.72 100.82 80.55 Q 112.14 90.37 112.71 106.77 L 88.68 107.83 Q 87.13 98.65 82.06 94.63 Q 76.98 90.61 66.83 90.61 Q 56.36 90.61 50.43 94.92 Q 46.61 97.68 46.61 102.31 Q 46.61 106.53 50.19 109.53 Q 54.73 113.35 72.27 117.49 Q 89.81 121.63 98.22 126.06 Q 106.62 130.48 111.37 138.16 Q 116.12 145.83 116.12 157.12 Q 116.12 167.35 110.44 176.28 Q 104.75 185.21 94.36 189.56 Q 83.97 193.9 68.46 193.9 Q 45.88 193.9 33.78 183.47 Q 21.68 173.03 19.33 153.06 Z M 131.35 191.79 L 131.35 72.75 L 167.32 72.75 L 188.92 153.95 L 210.27 72.75 L 246.33 72.75 L 246.33 191.79 L 224 191.79 L 224 98.08 L 200.37 191.79 L 177.22 191.79 L 153.68 98.08 L 153.68 191.79 Z"/>
</svg>