<svg viewBox="0 0 400 400" xmlns="http://www.w3.org/2000/svg">
  <path d="M 322.45 176.757 L 386.679 358.541 L 345.582 358.541 L 333.893 321.173 L 267.08 321.173 L 254.529 358.541 L 214.909 358.541 L 279.63 176.757 L 322.449 176.757 L 322.45 176.757 Z M 300.671 218.319 L 277.293 289.848 L 323.311 289.848 L 300.671 218.319 Z" style=""/>
  <path d="M 162.821 231.752 L 207.619 358.541 L 178.955 358.541 L 170.802 332.478 L 124.202 332.478 L 115.448 358.541 L 87.814 358.541 L 132.955 231.752 L 162.821 231.752 Z M 147.63 260.74 L 131.325 310.63 L 163.422 310.63 L 147.63 260.74 Z" style=""/>
  <path d="M 26.07 191.79 L 26.07 73.72 L 50.11 73.72 L 50.11 171.73 L 109.87 171.73 L 109.87 191.79 Z M 180.8 148.02 L 180.8 127.97 L 232.61 127.97 L 232.61 175.39 Q 225.05 182.7 210.72 188.26 Q 196.39 193.82 181.69 193.82 Q 163.02 193.82 149.13 185.99 Q 135.25 178.15 128.26 163.57 Q 121.28 149 121.28 131.86 Q 121.28 113.27 129.07 98.82 Q 136.87 84.36 151.89 76.65 Q 163.34 70.72 180.39 70.72 Q 202.56 70.72 215.03 80.02 Q 227.49 89.32 231.06 105.72 L 207.19 110.18 Q 204.67 101.41 197.73 96.34 Q 190.79 91.26 180.39 91.26 Q 164.64 91.26 155.34 101.25 Q 146.05 111.24 146.05 130.89 Q 146.05 152.08 155.46 162.68 Q 164.88 173.28 180.15 173.28 Q 187.7 173.28 195.29 170.31 Q 202.89 167.35 208.33 163.13 L 208.33 148.02 Z"/>
</svg>