<svg viewBox="0 0 400 400" xmlns="http://www.w3.org/2000/svg">
  <path d="M 322.45 176.757 L 386.679 358.541 L 345.582 358.541 L 333.893 321.173 L 267.08 321.173 L 254.529 358.541 L 214.909 358.541 L 279.63 176.757 L 322.449 176.757 L 322.45 176.757 Z M 300.671 218.319 L 277.293 289.848 L 323.311 289.848 L 300.671 218.319 Z" style=""/>
  <path d="M 162.821 231.752 L 207.619 358.541 L 178.955 358.541 L 170.802 332.478 L 124.202 332.478 L 115.448 358.541 L 87.814 358.541 L 132.955 231.752 L 162.821 231.752 Z M 147.63 260.74 L 131.325 310.63 L 163.422 310.63 L 147.63 260.74 Z" style=""/>
  <path d="M 22.7 50.17 L 59.32 50.17 Q 70.2 50.17 75.54 51.07 Q 80.88 51.98 85.1 54.85 Q 89.32 57.73 92.13 62.51 Q 94.95 67.29 94.95 73.23 Q 94.95 79.67 91.48 85.04 Q 88.01 90.42 82.07 93.1 Q 90.45 95.54 94.95 101.42 Q 99.45 107.29 99.45 115.23 Q 99.45 121.48 96.54 127.38 Q 93.63 133.29 88.6 136.82 Q 83.57 140.35 76.2 141.17 Q 71.57 141.67 53.88 141.79 L 22.7 141.79 Z M 41.2 65.42 L 41.2 86.6 L 53.32 86.6 Q 64.13 86.6 66.76 86.29 Q 71.51 85.73 74.23 83.01 Q 76.95 80.29 76.95 75.85 Q 76.95 71.6 74.6 68.95 Q 72.26 66.29 67.63 65.73 Q 64.88 65.42 51.82 65.42 Z M 41.2 101.85 L 41.2 126.35 L 58.32 126.35 Q 68.32 126.35 71.01 125.79 Q 75.13 125.04 77.73 122.13 Q 80.32 119.23 80.32 114.35 Q 80.32 110.23 78.32 107.35 Q 76.32 104.48 72.54 103.17 Q 68.76 101.85 56.13 101.85 Z M 192.76 141.79 L 172.63 141.79 L 164.63 120.98 L 128.01 120.98 L 120.45 141.79 L 100.82 141.79 L 136.51 50.17 L 156.07 50.17 Z M 158.7 105.54 L 146.07 71.54 L 133.7 105.54 Z M 199.2 111.98 L 217.2 110.23 Q 218.82 119.29 223.79 123.54 Q 228.76 127.79 237.2 127.79 Q 246.13 127.79 250.66 124.01 Q 255.2 120.23 255.2 115.17 Q 255.2 111.92 253.29 109.63 Q 251.38 107.35 246.63 105.67 Q 243.38 104.54 231.82 101.67 Q 216.95 97.98 210.95 92.6 Q 202.51 85.04 202.51 74.17 Q 202.51 67.17 206.48 61.07 Q 210.45 54.98 217.91 51.79 Q 225.38 48.6 235.95 48.6 Q 253.2 48.6 261.91 56.17 Q 270.63 63.73 271.07 76.35 L 252.57 77.17 Q 251.38 70.1 247.48 67.01 Q 243.57 63.92 235.76 63.92 Q 227.7 63.92 223.13 67.23 Q 220.2 69.35 220.2 72.92 Q 220.2 76.17 222.95 78.48 Q 226.45 81.42 239.95 84.6 Q 253.45 87.79 259.91 91.2 Q 266.38 94.6 270.04 100.51 Q 273.7 106.42 273.7 115.1 Q 273.7 122.98 269.32 129.85 Q 264.95 136.73 256.95 140.07 Q 248.95 143.42 237.01 143.42 Q 219.63 143.42 210.32 135.38 Q 201.01 127.35 199.2 111.98 Z M 291.38 141.79 L 291.38 50.17 L 359.32 50.17 L 359.32 65.67 L 309.88 65.67 L 309.88 85.98 L 355.88 85.98 L 355.88 101.42 L 309.88 101.42 L 309.88 126.35 L 361.07 126.35 L 361.07 141.79 Z"/>
</svg>