<svg viewBox="0 0 400 400" xmlns="http://www.w3.org/2000/svg">
  <path d="M 322.45 176.757 L 386.679 358.541 L 345.582 358.541 L 333.893 321.173 L 267.08 321.173 L 254.529 358.541 L 214.909 358.541 L 279.63 176.757 L 322.449 176.757 L 322.45 176.757 Z M 300.671 218.319 L 277.293 289.848 L 323.311 289.848 L 300.671 218.319 Z" style=""/>
  <path d="M 162.821 231.752 L 207.619 358.541 L 178.955 358.541 L 170.802 332.478 L 124.202 332.478 L 115.448 358.541 L 87.814 358.541 L 132.955 231.752 L 162.821 231.752 Z M 147.63 260.74 L 131.325 310.63 L 163.422 310.63 L 147.63 260.74 Z" style=""/>
  <path d="M 13.32 191.79 L 54 129.67 L 17.14 72.75 L 45.23 72.75 L 69.11 111 L 92.49 72.75 L 120.34 72.75 L 83.32 130.57 L 124 191.79 L 95.01 191.79 L 68.62 150.62 L 42.15 191.79 Z M 125.58 153.06 L 148.97 150.78 Q 151.08 162.56 157.53 168.08 Q 163.99 173.6 174.95 173.6 Q 186.56 173.6 192.45 168.69 Q 198.34 163.78 198.34 157.2 Q 198.34 152.98 195.86 150.01 Q 193.38 147.05 187.21 144.86 Q 182.99 143.4 167.97 139.66 Q 148.64 134.87 140.85 127.89 Q 129.88 118.06 129.88 103.93 Q 129.88 94.84 135.04 86.92 Q 140.2 79 149.9 74.86 Q 159.6 70.72 173.33 70.72 Q 195.74 70.72 207.07 80.55 Q 218.39 90.37 218.96 106.77 L 194.93 107.83 Q 193.38 98.65 188.31 94.63 Q 183.23 90.61 173.08 90.61 Q 162.61 90.61 156.68 94.92 Q 152.86 97.68 152.86 102.31 Q 152.86 106.53 156.44 109.53 Q 160.98 113.35 178.52 117.49 Q 196.06 121.63 204.47 126.06 Q 212.87 130.48 217.62 138.16 Q 222.37 145.83 222.37 157.12 Q 222.37 167.35 216.69 176.28 Q 211 185.21 200.61 189.56 Q 190.22 193.9 174.71 193.9 Q 152.13 193.9 140.03 183.47 Q 127.93 173.03 125.58 153.06 Z"/>
</svg>